<svg xmlns="http://www.w3.org/2000/svg" viewBox="0 0 480 120" width="480" height="120" role="img" aria-label="HOU 焙">
  <defs>
    <linearGradient id="hou-grad-w" x1="0%" y1="0%" x2="100%" y2="100%">
      <stop offset="0%" stop-color="#ffffff" />
      <stop offset="60%" stop-color="#fcd34d" />
      <stop offset="100%" stop-color="#84cc16" />
    </linearGradient>
    <radialGradient id="hou-ember-w" cx="50%" cy="55%" r="55%">
      <stop offset="0%" stop-color="#fef9c3" />
      <stop offset="60%" stop-color="#b45309" />
      <stop offset="100%" stop-color="#1c1917" />
    </radialGradient>
  </defs>

  <g transform="translate(20, 18)">
    <ellipse cx="42" cy="82" rx="34" ry="4" fill="#000000" opacity="0.3" />
    <circle cx="42" cy="44" r="32" fill="url(#hou-ember-w)" />
    <circle cx="42" cy="44" r="32" fill="none" stroke="#ffffff" stroke-width="2" />
    <g fill="#fef9c3">
      <ellipse cx="30" cy="36" rx="3" ry="1.6" transform="rotate(-25 30 36)" />
      <ellipse cx="48" cy="32" rx="3" ry="1.6" transform="rotate(15 48 32)" />
      <ellipse cx="38" cy="48" rx="3" ry="1.6" transform="rotate(-10 38 48)" />
      <ellipse cx="54" cy="50" rx="3" ry="1.6" transform="rotate(35 54 50)" />
      <ellipse cx="26" cy="52" rx="3" ry="1.6" transform="rotate(55 26 52)" />
    </g>
    <g fill="none" stroke="#ffffff" stroke-width="1.5" stroke-linecap="round" opacity="0.7">
      <path d="M 30 14 Q 34 10 30 6" />
      <path d="M 42 10 Q 46 6 42 2" />
      <path d="M 54 14 Q 58 10 54 6" />
    </g>
  </g>

  <g transform="translate(120, 0)">
    <text x="0" y="58" font-family="Noto Serif JP, Georgia, serif" font-size="44" font-weight="700" fill="#ffffff" letter-spacing="4">
      焙 HOU
    </text>
    <text x="0" y="86" font-family="Noto Serif JP, Georgia, serif" font-size="14" font-weight="500" fill="#fef3c7" letter-spacing="4">
      ほう
    </text>
    <rect x="0" y="95" width="60" height="2" fill="url(#hou-grad-w)" />
    <text x="70" y="102" font-family="Noto Sans JP, sans-serif" font-size="10" fill="#e7e5e4" letter-spacing="1">
      焙煎玄米だけの、玄米茶ブランド
    </text>
  </g>
</svg>
